<svg width="100" height="100" viewBox="0 0 100 100" fill="none" xmlns="http://www.w3.org/2000/svg">
<path d="M50.6098 9.73956C50.9813 9.01363 52.0187 9.01364 52.3902 9.73956L67.6426 39.5444C67.9831 40.2098 67.4999 41 66.7524 41H36.2476C35.5001 41 35.0169 40.2098 35.3574 39.5444L50.6098 9.73956Z" fill="#FFC107"/>
<path d="M40.2227 30.7707C40.6437 31.1657 40.6437 31.8343 40.2227 32.2293L24.6842 46.8074C24.0456 47.4065 23 46.9537 23 46.0781L23 16.9219C23 16.0463 24.0456 15.5935 24.6842 16.1926L40.2227 30.7707Z" fill="#FFC107"/>
<path d="M62.7773 32.2293C62.3563 31.8343 62.3563 31.1657 62.7773 30.7707L78.3158 16.1926C78.9544 15.5935 80 16.0463 80 16.9219V46.0781C80 46.9537 78.9544 47.4065 78.3158 46.8074L62.7773 32.2293Z" fill="#FFC107"/>
<path d="M23 33H80V58H23V33Z" fill="#FFC107"/>
<path d="M27 15C27 17.2091 25.2091 19 23 19C20.7909 19 19 17.2091 19 15C19 12.7909 20.7909 11 23 11C25.2091 11 27 12.7909 27 15Z" fill="#FFC107"/>
<path d="M55.5 8C55.5 10.2091 53.7091 12 51.5 12C49.2909 12 47.5 10.2091 47.5 8C47.5 5.79086 49.2909 4 51.5 4C53.7091 4 55.5 5.79086 55.5 8Z" fill="#FFC107"/>
<path d="M84 15C84 17.2091 82.2091 19 80 19C77.7909 19 76 17.2091 76 15C76 12.7909 77.7909 11 80 11C82.2091 11 84 12.7909 84 15Z" fill="#FFC107"/>
<path d="M23 46H80V58H23V46Z" fill="#FF9800"/>
<path d="M19.6875 88V61.8182H30.9886C32.9318 61.8182 34.6321 62.2017 36.0895 62.9688C37.5469 63.7358 38.6804 64.8139 39.4901 66.2031C40.2997 67.5923 40.7045 69.2159 40.7045 71.0739C40.7045 72.9489 40.2869 74.5724 39.4517 75.9446C38.625 77.3168 37.4616 78.3736 35.9616 79.1151C34.4702 79.8565 32.7273 80.2273 30.733 80.2273H23.983V74.7045H29.3011C30.1364 74.7045 30.848 74.5597 31.4361 74.2699C32.0327 73.9716 32.4886 73.5497 32.804 73.0043C33.1278 72.4588 33.2898 71.8153 33.2898 71.0739C33.2898 70.3239 33.1278 69.6847 32.804 69.1562C32.4886 68.6193 32.0327 68.2102 31.4361 67.929C30.848 67.6392 30.1364 67.4943 29.3011 67.4943H26.7955V88H19.6875ZM53.3864 88H43.3125V61.8182H53.2841C55.9773 61.8182 58.304 62.3423 60.2642 63.3906C62.233 64.4304 63.75 65.9304 64.8153 67.8906C65.8892 69.8423 66.4261 72.1818 66.4261 74.9091C66.4261 77.6364 65.8935 79.9801 64.8281 81.9403C63.7628 83.892 62.2543 85.392 60.3026 86.4403C58.3509 87.4801 56.0455 88 53.3864 88ZM50.4205 81.9659H53.1307C54.4261 81.9659 55.5298 81.7571 56.4418 81.3395C57.3622 80.9219 58.0611 80.2017 58.5384 79.179C59.0241 78.1562 59.267 76.733 59.267 74.9091C59.267 73.0852 59.0199 71.6619 58.5256 70.6392C58.0398 69.6165 57.3239 68.8963 56.3778 68.4787C55.4403 68.0611 54.2898 67.8523 52.9261 67.8523H50.4205V81.9659ZM69.7148 88V61.8182H88.1239V67.5455H76.8228V72.0455H86.9989V77.7727H76.8228V88H69.7148Z" fill="black"/>
</svg>
